<?xml version="1.0" standalone="no"?>
<!DOCTYPE svg PUBLIC "-//W3C//DTD SVG 20010904//EN"
 "http://www.w3.org/TR/2001/REC-SVG-20010904/DTD/svg10.dtd">
<svg version="1.0" xmlns="http://www.w3.org/2000/svg"
 width="413.000000pt" height="413.000000pt" viewBox="0 0 413.000000 413.000000"
 preserveAspectRatio="xMidYMid meet">
<metadata>
Created by potrace 1.11, written by Peter Selinger 2001-2013
</metadata>
<g transform="translate(0.000000,413.000000) scale(0.100000,-0.100000)"
fill="#000000" stroke="none">
<path d="M50 2060 l0 -2020 2020 0 2020 0 0 2020 0 2020 -2020 0 -2020 0 0
-2020z m1223 1718 c2 -7 -2 -28 -10 -46 -20 -48 -20 -115 -1 -144 9 -14 42
-40 73 -57 98 -56 148 -171 128 -295 l-10 -59 65 -106 c75 -123 184 -339 233
-463 l34 -88 293 0 292 0 0 575 0 575 310 0 310 0 0 -575 0 -575 150 0 150 0
0 -1115 0 -1115 -1115 0 -1115 0 0 169 0 170 -47 6 c-333 43 -577 244 -675
555 -30 98 -33 308 -5 410 58 214 213 400 412 495 76 37 217 75 278 75 l37 0
0 175 0 175 100 0 c55 0 100 3 100 6 0 3 -13 58 -29 122 -35 141 -47 197 -65
323 -13 82 -20 105 -55 159 -87 134 -106 251 -62 382 48 146 202 328 224 266z"/>
<path d="M1163 3635 c-68 -107 -88 -163 -88 -255 0 -77 3 -92 32 -150 18 -36
41 -75 50 -86 l18 -22 117 37 c116 35 118 37 124 69 15 79 -16 193 -62 233
-11 9 -40 27 -65 42 -58 33 -80 66 -88 131 l-6 51 -32 -50z"/>
<path d="M2740 3435 c0 -25 1 -25 90 -25 89 0 90 0 90 25 0 25 -1 25 -90 25
-89 0 -90 0 -90 -25z"/>
<path d="M2732 3188 c3 -22 8 -23 91 -26 l87 -3 0 26 c0 25 0 25 -91 25 -88 0
-90 -1 -87 -22z"/>
<path d="M2730 2945 c0 -25 1 -25 90 -25 89 0 90 0 90 25 0 25 -1 25 -90 25
-89 0 -90 0 -90 -25z"/>
<path d="M1535 2771 c-38 -16 -114 -45 -167 -66 -94 -36 -119 -57 -83 -71 8
-3 89 23 180 58 140 53 165 66 163 82 -4 28 -16 28 -93 -3z"/>
<path d="M2732 2698 c3 -22 8 -23 91 -26 l87 -3 0 26 c0 25 0 25 -91 25 -88 0
-90 -1 -87 -22z"/>
<path d="M983 1949 c-194 -32 -375 -190 -433 -375 -95 -309 84 -630 395 -709
32 -8 72 -15 87 -15 l28 0 0 555 c0 438 -3 555 -12 554 -7 -1 -37 -5 -65 -10z"/>
<path d="M2130 1444 c-80 -212 -146 -390 -148 -395 -2 -5 17 -9 42 -9 39 0 48
4 56 23 6 12 73 190 149 395 l138 372 -46 0 -46 0 -145 -386z"/>
<path d="M1653 1582 c-340 -170 -340 -149 -2 -297 138 -61 255 -112 261 -114
5 -2 8 16 6 40 l-3 43 -202 85 c-112 46 -203 87 -203 91 0 3 91 49 203 101
l202 96 3 41 c2 23 0 42 -5 41 -4 0 -122 -57 -260 -127z"/>
<path d="M2440 1668 l0 -43 201 -94 c110 -52 202 -98 204 -101 2 -3 -88 -44
-201 -91 l-204 -84 0 -42 0 -42 68 29 c37 16 153 66 257 112 265 117 269 101
-64 268 l-261 130 0 -42z"/>
</g>
</svg>
