<?xml version="1.0" encoding="utf-8"?>
<!-- Generator: Adobe Illustrator 19.2.0, SVG Export Plug-In . SVG Version: 6.00 Build 0)  -->
<svg version="1.1" id="Layer_1" xmlns="http://www.w3.org/2000/svg" xmlns:xlink="http://www.w3.org/1999/xlink" x="0px" y="0px"
	 viewBox="0 0 32 32" style="enable-background:new 0 0 32 32;" xml:space="preserve">
<style type="text/css">
	.st0{fill:#2C3E50;}
</style>
<g id="icomoon-ignore">
</g>
<path class="st0" d="M31.4,11.2l-7.2-8.5H7.8l-7.2,8.5L0,11.8l0.5,0.6L16,32l16-20.2L31.4,11.2L31.4,11.2z M29.9,11.2H17.6l6.1-7.3
	C23.7,3.9,29.9,11.2,29.9,11.2z M15.9,11.2L9.6,3.9h12.6L15.9,11.2z M8.2,4l6.2,7.1H2.1C2.1,11.2,8.2,4,8.2,4z M15.4,12.4v16.8
	L2,12.4H15.4z M16.6,29.2V12.4h13.3C29.9,12.4,16.6,29.2,16.6,29.2z"/>
</svg>
